# xmcd
#
# Track frame offsets: 
#        150
#        13485
#        36393
#        49621
#        68979
#        92287
#        110004
#        130285
#        137241
#        149164
#        174060
#
# Disc length: 2444 seconds
#
# Revision: 0
# Processed by: cddbd v1.5.2PL0 Copyright (c) Steve Scherf et al.
# Submitted via: ExactAudioCopy v1.3
#
DISCID=a2098a0b
DTITLE=Arnt Arntzen - Banjo Hymn
DYEAR=2014
DGENRE=Swing
TTITLE0=Banjo Hymn
TTITLE1=Do That Dirty Thing
TTITLE2=Let's All Go
TTITLE3=Lulu's Back in Town
TTITLE4=Mod Solitude
TTITLE5=Majoring Minoring
TTITLE6=Night And Day
TTITLE7=Banjo Jokes
TTITLE8=Ramblin' Man
TTITLE9=The Call
TTITLE10=Voodoo Pixie
EXTD=
EXTT0=
EXTT1=
EXTT2=
EXTT3=
EXTT4=
EXTT5=
EXTT6=
EXTT7=
EXTT8=
EXTT9=
EXTT10=
PLAYORDER=
